<?xml version="1.0" encoding="UTF-8" standalone="no"?>
<svg
   style="fill:white;"
   xmlns:dc="http://purl.org/dc/elements/1.1/"
   xmlns:cc="http://creativecommons.org/ns#"
   xmlns:rdf="http://www.w3.org/1999/02/22-rdf-syntax-ns#"
   xmlns:svg="http://www.w3.org/2000/svg"
   xmlns="http://www.w3.org/2000/svg"
   xmlns:sodipodi="http://sodipodi.sourceforge.net/DTD/sodipodi-0.dtd"
   xmlns:inkscape="http://www.inkscape.org/namespaces/inkscape"
   version="1.1"
   x="0px"
   y="0px"
   viewBox="0 0 105 105"
   xml:space="preserve"
   id="svg2"
   inkscape:version="0.91 r13725"
   sodipodi:docname="authors.svg"
   width="105"
   height="105"><metadata
     id="metadata42"><rdf:RDF><cc:Work
         rdf:about=""><dc:format>image/svg+xml</dc:format><dc:type
           rdf:resource="http://purl.org/dc/dcmitype/StillImage" /><dc:title></dc:title></cc:Work></rdf:RDF></metadata><defs
     id="defs40" /><sodipodi:namedview
     pagecolor="#ffffff"
     bordercolor="#666666"
     borderopacity="1"
     objecttolerance="10"
     gridtolerance="10"
     guidetolerance="10"
     inkscape:pageopacity="0"
     inkscape:pageshadow="2"
     inkscape:window-width="1920"
     inkscape:window-height="1031"
     id="namedview38"
     showgrid="false"
     inkscape:zoom="3.776"
     inkscape:cx="83.262712"
     inkscape:cy="38.77283"
     inkscape:window-x="1440"
     inkscape:window-y="27"
     inkscape:window-maximized="1"
     inkscape:current-layer="svg2" /><path
     d="m 38.958475,57.15 9.1,0 c 0.5,0 0.9,-0.4 0.9,-0.9 l 0,-8.2 c 0,-0.5 -0.4,-0.9 -0.9,-0.9 l -9.1,0 c -0.5,0 -0.9,0.4 -0.9,0.9 l 0,8.2 c 0,0.5 0.4,0.9 0.9,0.9 z m 0.9,-1.9 0,-6.3 7.3,0 0,6.3 -7.3,0 z"
     id="path4"
     inkscape:connector-curvature="0" /><path
     d="m 60.358475,60.75 -21.4,0 c -0.5,0 -0.9,0.4 -0.9,0.9 0,0.5 0.4,0.9 0.9,0.9 l 21.4,0 c 0.5,0 0.9,-0.4 0.9,-0.9 0,-0.5 -0.4,-0.9 -0.9,-0.9 z"
     id="path6"
     inkscape:connector-curvature="0" /><path
     d="m 60.358475,66.05 -21.4,0 c -0.5,0 -0.9,0.4 -0.9,0.9 0,0.5 0.4,0.9 0.9,0.9 l 21.4,0 c 0.5,0 0.9,-0.4 0.9,-0.9 0,-0.5 -0.4,-0.9 -0.9,-0.9 z"
     id="path8"
     inkscape:connector-curvature="0" /><path
     d="m 52.658475,50.45 7.7,0 c 0.5,0 0.9,-0.4 0.9,-0.9 0,-0.5 -0.4,-0.9 -0.9,-0.9 l -7.7,0 c -0.5,0 -0.9,0.4 -0.9,0.9 0,0.5 0.4,0.9 0.9,0.9 z"
     id="path10"
     inkscape:connector-curvature="0" /><path
     d="m 60.358475,54.25 -7.7,0 c -0.5,0 -0.9,0.4 -0.9,0.9 0,0.5 0.4,0.9 0.9,0.9 l 7.7,0 c 0.5,0 0.9,-0.4 0.9,-0.9 0,-0.5 -0.4,-0.9 -0.9,-0.9 z"
     id="path12"
     inkscape:connector-curvature="0" /><path
     d="m 28.958475,92.45 0,0 c 0,-0.1 -0.6,-7.6 -10.1,-7.6 -9.6000003,0 -10.1000003,7.6 -10.1000003,7.6 l 0,2.2 c 0,0.6 0.5,1.1 1.1,1.1 l 18.0000003,0 c 0.6,0 1.1,-0.5 1.1,-1.1 l 0,-2.2 z"
     id="path14"
     inkscape:connector-curvature="0" /><path
     d="m 18.558475,83.05 c 2.8,0 5,-2.5 5,-5.5 0,-3.1 -2.3,-5.5 -5,-5.5 -2.8,0 -5,2.5 -5,5.5 0,3 2.2,5.5 5,5.5 z"
     id="path16"
     inkscape:connector-curvature="0" /><path
     d="m 95.758475,92.45 0,0 c 0,-0.1 -0.6,-7.6 -10.1,-7.6 -9.6,0 -10.1,7.6 -10.1,7.6 l 0,2.2 c 0,0.6 0.5,1.1 1.1,1.1 l 18,0 c 0.6,0 1.1,-0.5 1.1,-1.1 l 0,-2.2 z"
     id="path18"
     inkscape:connector-curvature="0" /><path
     d="m 85.458475,83.05 c 2.8,0 5,-2.5 5,-5.5 0,-3.1 -2.3,-5.5 -5,-5.5 -2.8,0 -5,2.5 -5,5.5 -0.1,3 2.2,5.5 5,5.5 z"
     id="path20"
     inkscape:connector-curvature="0" /><path
     d="m 61.858475,23.85 0,0 c 0,-0.1 -0.6,-7.6 -10.1,-7.6 -9.6,0 -10.1,7.6 -10.1,7.6 l 0,2.2 c 0,0.6 0.5,1.1 1.1,1.1 l 18,0 c 0.6,0 1.1,-0.5 1.1,-1.1 l 0,-2.2 z"
     id="path22"
     inkscape:connector-curvature="0" /><path
     d="m 51.558475,14.45 c 2.8,0 5,-2.5 5,-5.5 0,-3 -2.3,-5.6 -5,-5.6 -2.8,0 -5,2.5 -5,5.5 0,3 2.2,5.6 5,5.6 z"
     id="path24"
     inkscape:connector-curvature="0" /><path
     d="m 36.458475,17.35 c -0.2,-0.5 -0.7,-0.8 -1.2,-0.8 -0.2,0 -0.4,0 -0.5,0.1 -37.2000003,16.3 -25.5000003,53.9 -25.4000003,54.3 0.2,0.7 1.0000003,1.1 1.6000003,0.8 0.3,-0.1 0.6,-0.3 0.8,-0.6 0.2,-0.3 0.2,-0.7 0.1,-1 0,-0.1 -2.9000003,-9 -1.3,-19.8 2,-14.4 10.5,-24.9 25.2,-31.3 0.6,-0.3 0.9,-1 0.7,-1.7 z"
     id="path26"
     inkscape:connector-curvature="0" /><path
     d="m 70.358475,16.65 c -0.2,-0.1 -0.3,-0.1 -0.5,-0.1 -0.2,0 -0.3,0 -0.5,0.1 -0.3,0.1 -0.6,0.4 -0.7,0.7 -0.1,0.3 -0.1,0.7 0,1 0.1,0.3 0.4,0.6 0.7,0.7 34.799995,15.3 24.3,49.7 23.8,51.1 -0.2,0.7 0.2,1.4 0.8,1.6 0.7,0.2 1.4,-0.2 1.6,-0.8 0.2,-0.4 11.899995,-38 -25.2,-54.3 z"
     id="path28"
     inkscape:connector-curvature="0" /><path
     d="m 69.458475,95.55 c -18.2,7.7 -33.1,0.1 -33.3,0 -0.2,-0.1 -0.4,-0.1 -0.6,-0.1 -0.1,0 -0.3,0 -0.4,0.1 -0.3,0.1 -0.6,0.3 -0.8,0.6 -0.2,0.3 -0.2,0.7 -0.1,1 0.1,0.3 0.3,0.6 0.6,0.8 0.3,0.2 7.3,3.7 17.6,3.7 6.1,0 12.1,-1.2 17.9,-3.7 0.7,-0.3 1,-1 0.7,-1.7 -0.2,-0.7 -1,-1 -1.6,-0.7 z"
     id="path30"
     inkscape:connector-curvature="0" /><path
     d="m 72.758475,38.05 -12.9,0.1 0,-2.2 c 0,-0.6 -0.5,-1 -1,-1 -0.6,0 -1,0.5 -1,1 l 0,2.2 -16,0 0,-2.2 c 0,-0.6 -0.5,-1 -1,-1 -0.6,0 -1,0.5 -1,1 l 0,2.2 -9.9,0 0,37.8 4.4,0 0,2.7 c 0,0.6 0.5,1 1,1 l 37.6,0 c 0.6,0 1,-0.5 1,-1 l 0,-39.6 c -0.2,-0.6 -0.6,-1 -1.2,-1 z m -40.9,35.8 0,-33.7 7.8,0 0,0.8 c 0,0.6 0.5,1 1,1 0.6,0 1,-0.5 1,-1 l 0,-0.8 16,0 0,0.8 c 0,0.6 0.5,1 1,1 0.6,0 1,-0.5 1,-1 l 0,-0.8 8,0 0,33.7 -35.8,0 z m 39.9,3.7 -35.5,0 0,-1.6 33.8,0 0,-35.9 1.7,0 0,37.5 z"
     id="path32"
     inkscape:connector-curvature="0" /></svg>
