<?xml version="1.0" encoding="UTF-8" standalone="no"?>
<svg
   xmlns:dc="http://purl.org/dc/elements/1.1/"
   xmlns:cc="http://creativecommons.org/ns#"
   xmlns:rdf="http://www.w3.org/1999/02/22-rdf-syntax-ns#"
   xmlns:svg="http://www.w3.org/2000/svg"
   xmlns="http://www.w3.org/2000/svg"
   xmlns:sodipodi="http://sodipodi.sourceforge.net/DTD/sodipodi-0.dtd"
   xmlns:inkscape="http://www.inkscape.org/namespaces/inkscape"
   version="1.1"
   viewBox="0 0 120 120"
   x="0px"
   y="0px"
   id="svg2"
   inkscape:version="0.91 r13725"
   sodipodi:docname="book.svg"
   width="120"
   height="120">
  <metadata
     id="metadata18">
    <rdf:RDF>
      <cc:Work
         rdf:about="">
        <dc:format>image/svg+xml</dc:format>
        <dc:type
           rdf:resource="http://purl.org/dc/dcmitype/StillImage" />
        <dc:title></dc:title>
      </cc:Work>
    </rdf:RDF>
  </metadata>
  <defs
     id="defs16" />
  <sodipodi:namedview
     pagecolor="#ffffff"
     bordercolor="#666666"
     borderopacity="1"
     objecttolerance="10"
     gridtolerance="10"
     guidetolerance="10"
     inkscape:pageopacity="0"
     inkscape:pageshadow="2"
     inkscape:window-width="1920"
     inkscape:window-height="1031"
     id="namedview14"
     showgrid="false"
     inkscape:zoom="5.9"
     inkscape:cx="75.85202"
     inkscape:cy="60.677966"
     inkscape:window-x="1440"
     inkscape:window-y="27"
     inkscape:window-maximized="1"
     inkscape:current-layer="svg2" />
  <g
     transform="matrix(3.4519774,0,0,4.3621584,4.7683616,-4461.8666)"
     id="g4">
    <path
       style="color:#000000;font-style:normal;font-variant:normal;font-weight:normal;font-stretch:normal;font-size:medium;line-height:normal;font-family:sans-serif;text-indent:0;text-align:start;text-decoration:none;text-decoration-line:none;text-decoration-style:solid;text-decoration-color:#000000;letter-spacing:normal;word-spacing:normal;text-transform:none;direction:ltr;block-progression:tb;writing-mode:lr-tb;baseline-shift:baseline;text-anchor:start;white-space:normal;clip-rule:nonzero;display:inline;overflow:visible;visibility:visible;opacity:1;isolation:auto;mix-blend-mode:normal;color-interpolation:sRGB;color-interpolation-filters:linearRGB;solid-color:#000000;solid-opacity:1;fill:#000000;fill-opacity:1;fill-rule:nonzero;stroke:none;stroke-width:1;stroke-linecap:round;stroke-linejoin:round;stroke-miterlimit:4;stroke-dasharray:none;stroke-dashoffset:0;stroke-opacity:1;color-rendering:auto;image-rendering:auto;shape-rendering:auto;text-rendering:auto;enable-background:accumulate"
       d="m 3.5,1024.3622 a 0.50004997,0.50004997 0 0 0 -0.5,0.5 l 0,0.5 -1.5,0 a 0.50005,0.50005 0 0 0 -0.5,0.5 l 0,21 a 0.50005,0.50005 0 0 0 0.5,0.5 l 12.00195,0 c 0.5257,0.8671 1.41217,1.5 2.49805,1.5 1.08588,0 1.97235,-0.6329 2.49805,-1.5 l 12.00195,0 a 0.50005,0.50005 0 0 0 0.5,-0.5 l 0,-13.9375 0,-7.0625 a 0.50005,0.50005 0 0 0 -0.5,-0.5 l -1.5,0 0,-0.5 a 0.50004997,0.50004997 0 0 0 -0.5,-0.5 l -11,0 c -0.5993,0 -1.13252,0.2718 -1.5,0.6934 -0.36748,-0.4216 -0.9007,-0.6934 -1.5,-0.6934 l -11,0 z m 0.5,1 10.5,0 c 0.56266,0 1,0.4374 1,1 l 0,18.416 c -0.30825,-0.1946 -0.61078,-0.416 -1,-0.416 l -10.5,0 0,-19 z m 13.5,0 10.5,0 0,19 -10.5,0 c -0.38922,0 -0.69175,0.2214 -1,0.416 l 0,-18.416 c 0,-0.5626 0.43734,-1 1,-1 z m -15.5,1 1,0 0,18.5 a 0.50004997,0.50004997 0 0 0 0.5,0.5 l 11,0 c 0.56266,0 1,0.4374 1,1 a 0.50004997,0.50004997 0 0 0 0.52148,0.4922 0.50004997,0.50004997 0 0 0 0.14649,-0.029 0.50004997,0.50004997 0 0 0 0.33203,-0.4629 c 0,-0.5627 0.43734,-1 1,-1 l 11,0 a 0.50004997,0.50004997 0 0 0 0.5,-0.5 l 0,-18.5 1,0 0,6.5625 0,13.4375 -11.70898,0 a 0.50005,0.50005 0 0 0 -0.45899,0.2988 c -0.30756,0.7064 -1.00337,1.2012 -1.83203,1.2012 -0.82866,0 -1.52447,-0.4948 -1.83203,-1.2012 a 0.50005,0.50005 0 0 0 -0.45899,-0.2988 l -11.70898,0 0,-20 z"
       id="path6"
       inkscape:connector-curvature="0" />
  </g>
  <style
     type="text/css"
     id="style8">
	.st0{fill:#030102;}
</style>
</svg>
