<?xml version="1.0" encoding="UTF-8" standalone="no"?>
<svg
  
   xmlns:dc="http://purl.org/dc/elements/1.1/"
   xmlns:cc="http://creativecommons.org/ns#"
   xmlns:rdf="http://www.w3.org/1999/02/22-rdf-syntax-ns#"
   xmlns:svg="http://www.w3.org/2000/svg"
   xmlns="http://www.w3.org/2000/svg"
   xmlns:sodipodi="http://sodipodi.sourceforge.net/DTD/sodipodi-0.dtd"
   xmlns:inkscape="http://www.inkscape.org/namespaces/inkscape"
   viewBox="0 0 50 50"
   version="1.1"
   xml:space="preserve"
   style="fill:#b3855f;clip-rule:evenodd;fill-rule:evenodd;stroke-linejoin:round;stroke-miterlimit:1.41420996"
   x="0px"
   y="0px"
   stroke-miterlimit="1.41421"
   id="svg2"
   inkscape:version="0.91 r13725"
   sodipodi:docname="noun_books_1747864 (1).svg"
   width="50"
   height="50"><metadata
     id="metadata14"><rdf:RDF><cc:Work
         rdf:about=""><dc:format>image/svg+xml</dc:format><dc:type
           rdf:resource="http://purl.org/dc/dcmitype/StillImage" /><dc:title></dc:title></cc:Work></rdf:RDF></metadata><defs
     id="defs12" /><sodipodi:namedview
     pagecolor="#ffffff"
     bordercolor="#666666"
     borderopacity="1"
     objecttolerance="10"
     gridtolerance="10"
     guidetolerance="10"
     inkscape:pageopacity="0"
     inkscape:pageshadow="2"
     inkscape:window-width="1920"
     inkscape:window-height="1031"
     id="namedview10"
     showgrid="false"
     inkscape:zoom="8.34386"
     inkscape:cx="18.895923"
     inkscape:cy="11.158394"
     inkscape:window-x="1440"
     inkscape:window-y="27"
     inkscape:window-maximized="1"
     inkscape:current-layer="svg2" /><path
     d="m 16.26152,33.545293 30.375392,0 0,6.066063 -30.375392,0 0,-6.066063 z m 2.382636,-23.15665 5.2418,3.058789 -15.2810683,26.163924 -5.2418,-3.05879 15.2810683,-26.163923 z m 2.208769,24.283572 -0.334857,0 0,3.805779 0.334857,0 0,-3.805779 z m -0.59244,0 -0.334857,0 0,3.805779 0.334857,0 0,-3.805779 z m -0.592439,0 -0.334857,0 0,3.805779 0.334857,0 0,-3.805779 z m 26.930229,-2.646658 -21.231221,0 0,-6.066063 21.231221,0 0,6.066063 z m -16.646256,-4.932701 -0.334857,0 0,3.805779 0.334857,0 0,-3.805779 z m -0.592439,0 -0.334857,0 0,3.805779 0.334857,0 0,-3.805779 z m -0.586,0 -0.334857,0 0,3.805779 0.334857,0 0,-3.805779 z m 17.824695,-2.64666 -24.264252,0 0,-6.072502 24.264252,0 0,6.072502 z m -19.679287,-4.93914 -0.334857,0 0,3.805778 0.334857,0 0,-3.805778 z m -0.59244,0 -0.334857,0 0,3.805778 0.334857,0 0,-3.805778 z m -0.592439,0 -0.334857,0 0,3.805778 0.334857,0 0,-3.805778 z m -8.410062,-4.617163 0.167429,-0.28978 3.290614,1.918988 -0.167429,0.28978 -3.290614,-1.918988 z m 0.302659,-0.508725 0.167429,-0.28978 3.284174,1.918988 -0.167428,0.28978 -3.284175,-1.918988 z m 0.29622,-0.515164 0.167429,-0.28978 3.284174,1.918988 -0.167429,0.28978 -3.284174,-1.918988 z"
     id="path4"
     inkscape:connector-curvature="0" /></svg>
