<?xml version="1.0" encoding="UTF-8" standalone="no"?>
<svg
style="fill:white;"
   xmlns:dc="http://purl.org/dc/elements/1.1/"
   xmlns:cc="http://creativecommons.org/ns#"
   xmlns:rdf="http://www.w3.org/1999/02/22-rdf-syntax-ns#"
   xmlns:svg="http://www.w3.org/2000/svg"
   xmlns="http://www.w3.org/2000/svg"
   xmlns:sodipodi="http://sodipodi.sourceforge.net/DTD/sodipodi-0.dtd"
   xmlns:inkscape="http://www.inkscape.org/namespaces/inkscape"
   version="1.1"
   x="0px"
   y="0px"
   viewBox="0 0 48 48"
   xml:space="preserve"
   id="svg2"
   inkscape:version="0.91 r13725"
   sodipodi:docname="reading.svg"
   width="48"
   height="48"><metadata
     id="metadata24"><rdf:RDF><cc:Work
         rdf:about=""><dc:format>image/svg+xml</dc:format><dc:type
           rdf:resource="http://purl.org/dc/dcmitype/StillImage" /><dc:title></dc:title></cc:Work></rdf:RDF></metadata><defs
     id="defs22" /><sodipodi:namedview
     pagecolor="#ffffff"
     bordercolor="#666666"
     borderopacity="1"
     objecttolerance="10"
     gridtolerance="10"
     guidetolerance="10"
     inkscape:pageopacity="0"
     inkscape:pageshadow="2"
     inkscape:window-width="933"
     inkscape:window-height="624"
     id="namedview20"
     showgrid="false"
     inkscape:zoom="3.9333333"
     inkscape:cx="24"
     inkscape:cy="30"
     inkscape:window-x="1712"
     inkscape:window-y="138"
     inkscape:window-maximized="0"
     inkscape:current-layer="svg2" /><g
     id="g4"><path
        
       d="m 10.75,32.28 c 0,-1.38 -1.12,-2.5 -2.5,-2.5 l -0.5,0 0,5 0.5,0 c 1.38,0 2.5,-1.12 2.5,-2.5 z"
       id="path6"
       inkscape:connector-curvature="0" /><path
       d="m 8.75,28.83 c 1.69,0.25 3,1.69 3,3.45 0,1.76 -1.31,3.2 -3,3.45 l 0,5.11 15,1.88 0,-18 -15,-1.88 0,5.99 z"
       id="path8"
       inkscape:connector-curvature="0" /><path
       d="m 36.25,32.28 c 0,-1.93 1.57,-3.5 3.5,-3.5 l 0,-5.93 -15,1.88 0,17.99 15,-1.88 0,-5.06 c -1.93,0 -3.5,-1.57 -3.5,-3.5 z"
       id="path10"
       inkscape:connector-curvature="0" /><circle
       cx="24.25"
       cy="13.28"
       r="8"
       id="circle12" /><path
       d="m 37.25,32.28 c 0,1.38 1.12,2.5 2.5,2.5 l 0.5,0 0,-5 -0.5,0 c -1.38,0 -2.5,1.12 -2.5,2.5 z"
       id="path14"
       inkscape:connector-curvature="0" /></g></svg>
